HIERARCHY
ROOT root
{
	OFFSET	0	13.1	24.9
	CHANNELS 6  Xposition Yposition Zposition Xrotation Yrotation Zrotation
	JOINT spine_1
	{
		OFFSET	0	9.99999	0
		CHANNELS 3  Xrotation Yrotation Zrotation
		JOINT spine_2
		{
			OFFSET	0	112	-10
			CHANNELS 3  Xrotation Yrotation Zrotation
			JOINT spine_3
			{
				OFFSET	0	206.5	19.3
				CHANNELS 3  Xrotation Yrotation Zrotation
				JOINT spine_4
				{
					OFFSET	0	110.4	14.6
					CHANNELS 3  Xrotation Yrotation Zrotation
					JOINT neck_1
					{
						OFFSET	0	71.8	-50.3
						CHANNELS 3  Xrotation Yrotation Zrotation
						JOINT neck_2
						{
							OFFSET	0	86.2	-25.8
							CHANNELS 3  Xrotation Yrotation Zrotation
							JOINT head_ee
							{
								OFFSET	0	179.8	-8.7
								CHANNELS 3  Xrotation Yrotation Zrotation
								End Site
								{
									OFFSET	1	0	0
								}
							}
						}
					}
					JOINT left_clavicle
					{
						OFFSET	-43.2	22.4	-70.8
						CHANNELS 3  Xrotation Yrotation Zrotation
						JOINT left_shoulder
						{
							OFFSET	-93.9	-5.79999	48.7
							CHANNELS 3  Xrotation Yrotation Zrotation
							JOINT left_elbow
							{
								OFFSET	-291.4	-30.8	15.2
								CHANNELS 3  Xrotation Yrotation Zrotation
								JOINT left_lowarm_twist
								{
									OFFSET	-110.7	-3.89999	13.6
									CHANNELS 3  Xrotation Yrotation Zrotation
									JOINT left_hand
									{
										OFFSET	-110.7	-3.89999	13.6
										CHANNELS 3  Xrotation Yrotation Zrotation
										JOINT left_ee
										{
											OFFSET	-80.8	-5.10001	12.1
											CHANNELS 3  Xrotation Yrotation Zrotation
											End Site
											{
												OFFSET	1	0	0
											}
										}
									}
								}
							}
						}
					}
					JOINT right_clavicle
					{
						OFFSET	43.2	22.4	-70.8
						CHANNELS 3  Xrotation Yrotation Zrotation
						JOINT right_shoulder
						{
							OFFSET	93.9	-5.79999	48.7
							CHANNELS 3  Xrotation Yrotation Zrotation
							JOINT right_elbow
							{
								OFFSET	291.4	-30.8	15.2
								CHANNELS 3  Xrotation Yrotation Zrotation
								JOINT right_lowarm_twist
								{
									OFFSET	110.7	-3.89999	13.6
									CHANNELS 3  Xrotation Yrotation Zrotation
									JOINT right_hand
									{
										OFFSET	110.7	-3.89999	13.6
										CHANNELS 3  Xrotation Yrotation Zrotation
										JOINT right_ee
										{
											OFFSET	80.8	-5.10001	12.1
											CHANNELS 3  Xrotation Yrotation Zrotation
											End Site
											{
												OFFSET	1	0	0
											}
										}
									}
								}
							}
						}
					}
				}
			}
		}
	}
	JOINT left_hip
	{
		OFFSET	-82.8	-127.5	0.300001
		CHANNELS 3  Xrotation Yrotation Zrotation
		JOINT left_knee
		{
			OFFSET	-28.2	-396.7	2.2
			CHANNELS 3  Xrotation Yrotation Zrotation
			JOINT left_ankle
			{
				OFFSET	-11.7	-411.3	35.4
				CHANNELS 3  Xrotation Yrotation Zrotation
				JOINT left_toes
				{
					OFFSET	0	-60	-88.6
					CHANNELS 3  Xrotation Yrotation Zrotation
					JOINT left_foot_ee
					{
						OFFSET	-22.5	-16.5	-42.2
						CHANNELS 3  Xrotation Yrotation Zrotation
						End Site
						{
							OFFSET	1	0	0
						}
					}
				}
			}
		}
	}
	JOINT right_hip
	{
		OFFSET	82.8	-127.5	0.300001
		CHANNELS 3  Xrotation Yrotation Zrotation
		JOINT right_knee
		{
			OFFSET	28.2	-396.7	2.2
			CHANNELS 3  Xrotation Yrotation Zrotation
			JOINT right_ankle
			{
				OFFSET	11.7	-411.3	35.4
				CHANNELS 3  Xrotation Yrotation Zrotation
				JOINT right_toes
				{
					OFFSET	0	-60	-88.6
					CHANNELS 3  Xrotation Yrotation Zrotation
					JOINT right_foot_ee
					{
						OFFSET	22.5	-16.5	-42.2
						CHANNELS 3  Xrotation Yrotation Zrotation
						End Site
						{
							OFFSET	1	0	0
						}
					}
				}
			}
		}
	}
}
MOTION
Frames: 10
Frame Time: 0.02
955.550375373 707.802 -1532.62278029 3.49607989915 65.7799962902 -10.6329146875 -0.832551 1.18812 5.72791 -0.814685 0.821857 5.79161 -0.717088 -0.48698 5.8292 -0.764203 0.438134 5.83306 2.80263 7.65593 -22.7917 6.4225 32.5465 -26.2823 -0.0 0.0 -0.0 -6.72843 24.0258 -6.41014 -3.99111 -5.27123 69.1681 1.02531 -26.9257 0.245458 -29.9261 -1.94896 3.24739 0.973221 12.4325 11.3371 -0.0 0.0 -0.0 13.349 25.4787 -26.5465 -3.17368 49.6486 -59.8649 0.850963 22.8573 -0.17203 -69.1101 6.4325 -5.29338 -3.47582 -15.6016 15.2652 0.0 0.0 0.0 2.56552 25.507 3.59744 -33.8881 -0.124386 5.12417 29.6596 8.26618 -3.85411 -31.6002 0.0 0.0 -0.0 0.0 -0.0 9.09399 3.82306 1.25302 -17.4098 -0.317479 -2.64257 17.6286 17.5619 2.68065 20.0314 -0.0 -0.0 0.0 0.0 0.0 
937.221722747 709.687 -1536.35519364 2.8579500407 65.0058567744 -9.66767661461 -0.700709 1.2484 5.6804 -0.683204 0.885021 5.74802 -0.580599 -0.401479 5.8017 -0.627163 0.518253 5.79247 2.90862 6.95356 -23.2442 6.52844 31.7541 -26.8707 -0.0 0.0 -0.0 -6.69808 24.8947 -6.09387 -6.54285 -3.4873 69.2499 0.927675 -24.6805 0.202952 -29.8644 -1.94327 3.24188 0.80101 13.8607 10.755 -0.0 0.0 -0.0 13.4478 25.2529 -26.8022 -1.64248 49.9358 -59.5329 0.904097 24.1255 -0.193211 -69.5609 6.49 -5.2981 -3.37866 -15.326 14.7993 0.0 0.0 0.0 8.02583 30.1615 -0.504768 -31.722 -0.0257348 4.80648 27.1605 7.18411 -3.57734 -31.9313 0.0 0.0 -0.0 0.0 -0.0 7.60536 1.59049 1.99496 -15.9734 -0.321853 -2.42223 20.3149 18.2492 3.06337 20.673 -0.0 -0.0 0.0 0.0 0.0 
918.137076123 712.573 -1533.7295081 5.10863990486 63.8053844868 -11.699544406 -0.764298 1.53427 5.60165 -0.747618 1.17531 5.68754 -0.616374 -0.107105 5.80634 -0.662475 0.809698 5.75079 2.02494 7.29214 -23.4038 5.59239 32.3433 -26.6786 -0.0 0.0 -0.0 -6.90849 25.3587 -6.23214 -9.71601 -1.52193 69.7627 0.818145 -22.0618 0.159492 -29.3308 -1.8944 3.19399 0.734527 14.7791 10.6683 -0.0 0.0 -0.0 13.5982 25.5408 -27.1194 -0.0568955 50.1003 -59.1548 0.959928 25.4316 -0.216612 -69.9363 6.5379 -5.30168 -3.35022 -15.0771 14.7584 0.0 0.0 0.0 12.7125 30.72 -1.97203 -30.6204 0.0198026 4.64357 26.4109 6.94533 -3.49259 -32.0775 0.0 0.0 -0.0 0.0 -0.0 4.6728 1.36035 2.74238 -16.3679 -0.321202 -2.48276 21.2679 18.1987 3.18911 20.3531 -0.0 -0.0 0.0 0.0 0.0 
893.528084136 707.964 -1513.30179142 6.16919736897 68.5229324104 -13.1006103044 -0.488448 1.24445 5.64392 -0.471171 0.883392 5.71136 -0.370527 -0.373771 5.76699 -0.416499 0.540163 5.75384 -0.0942257 9.32445 -21.3114 2.88077 33.8433 -23.1444 -0.0 0.0 -0.0 -7.03905 24.2589 -6.76901 -12.4576 -0.595963 70.1808 0.793775 -21.4653 0.150456 -28.2049 -1.79276 3.09148 0.839126 15.8354 11.7104 -0.0 0.0 -0.0 13.6835 25.0425 -27.376 1.51659 50.3264 -59.234 1.0704 27.9337 -0.266229 -70.3911 6.59595 -5.3056 -3.61442 -16.9255 15.3777 0.0 0.0 0.0 14.1543 30.5534 -2.24071 -29.9456 0.0461469 4.54335 28.0413 6.80633 -3.67521 -31.5208 0.0 0.0 -0.0 0.0 -0.0 2.27369 4.50491 3.07362 -15.9799 -0.321846 -2.42324 21.1045 17.6618 3.15373 18.9245 -0.0 -0.0 0.0 0.0 0.0 
893.239831251 707.964 -1509.48761011 6.29666112396 68.9767846625 -13.2373718854 -0.488448 1.24445 5.64392 -0.471171 0.883392 5.71136 -0.370527 -0.373771 5.76699 -0.416499 0.540163 5.75384 -0.0942257 9.32445 -21.3114 2.88077 33.8433 -23.1444 -0.0 0.0 -0.0 -7.03905 24.2589 -6.76901 -12.4576 -0.595963 70.1808 0.793775 -21.4653 0.150456 -28.2049 -1.79276 3.09148 0.839126 15.8354 11.7104 -0.0 0.0 -0.0 13.6835 25.0425 -27.376 1.51659 50.3264 -59.234 1.0704 27.9337 -0.266229 -70.3911 6.59595 -5.3056 -3.61442 -16.9255 15.3777 0.0 0.0 0.0 14.1543 30.5534 -2.24071 -29.9456 0.0461469 4.54335 28.0413 6.80633 -3.67521 -31.5208 0.0 0.0 -0.0 0.0 -0.0 2.27369 4.50491 3.07362 -15.9799 -0.321846 -2.42324 21.1045 17.6618 3.15373 18.9245 -0.0 -0.0 0.0 0.0 0.0 
864.875316427 704.945 -1489.53276504 5.08725291021 70.4278871093 -12.8572310629 -0.295889 1.21513 5.77476 -0.277745 0.845844 5.84007 -0.179533 -0.41889 5.88596 -0.227475 0.514296 5.87842 -2.76873 9.93103 -22.2738 -0.0203022 35.2893 -23.0478 -0.0 0.0 -0.0 -7.01015 24.4118 -6.67899 -14.9329 1.84901 71.3995 0.664003 -18.2075 0.106402 -28.4168 -1.81174 3.11093 0.694099 16.5317 11.0488 -0.0 0.0 -0.0 13.3709 24.5303 -26.7035 4.56146 50.7552 -59.252 1.29286 32.6359 -0.378513 -70.9335 6.66522 -5.30966 -3.91183 -16.7202 17.4072 0.0 0.0 0.0 17.5 29.4732 -3.69033 -29.1244 0.076605 4.42101 26.15 5.44271 -3.46347 -31.3147 0.0 0.0 -0.0 0.0 -0.0 0.939071 1.28543 5.64043 -15.6764 -0.322068 -2.37667 25.0821 18.183 3.67861 19.214 -0.0 -0.0 0.0 0.0 0.0 
852.673437025 706.113 -1479.98157879 4.57058848117 70.9235790104 -12.8805996555 -0.20847 1.17009 5.84826 -0.189807 0.796246 5.91056 -0.0959993 -0.474 5.94496 -0.144975 0.46914 5.94535 -6.57825 11.2764 -21.139 -4.74454 36.1755 -19.8643 -0.0 0.0 -0.0 -6.85151 24.3431 -6.4808 -16.3293 2.86173 72.0526 0.681515 -18.6549 0.111939 -27.9054 -1.76607 3.06388 0.574848 17.6652 10.7149 -0.0 0.0 -0.0 13.2753 24.3699 -26.4982 5.97511 50.9408 -59.435 1.3732 34.2233 -0.422774 -71.3713 6.72113 -5.31246 -4.32131 -20.0298 17.9271 0.0 0.0 0.0 19.1703 26.9038 -3.3668 -26.1873 0.171119 3.9802 22.3455 6.84906 -3.01718 -31.6849 0.0 0.0 -0.0 0.0 -0.0 -0.154924 1.40087 6.65561 -15.7198 -0.322052 -2.38333 24.8094 18.1867 3.6447 18.4192 -0.0 -0.0 0.0 0.0 0.0 
841.081488937 704.774 -1473.01426673 4.9471851851 71.1629704382 -13.6230623987 -0.167529 1.11061 5.82816 -0.148947 0.73816 5.88674 -0.0618785 -0.522478 5.90971 -0.110337 0.415725 5.91814 -10.1131 12.6824 -18.9943 -9.31124 36.5743 -15.7295 -0.0 0.0 -0.0 -6.91735 24.2491 -6.60255 -17.6303 3.24057 73.1015 0.74691 -20.3043 0.133749 -27.5289 -1.73272 3.029 0.629022 17.8594 11.1198 -0.0 0.0 -0.0 13.3444 24.0692 -26.6909 6.75848 50.0782 -59.2395 1.41313 34.9909 -0.445454 -70.8648 6.65644 -5.30918 -4.56154 -23.5769 17.0457 0.0 0.0 0.0 19.8318 22.072 -2.29902 -20.3872 0.290835 3.09857 19.5257 7.50899 -2.67178 -32.3122 0.0 0.0 -0.0 0.0 -0.0 -1.04789 1.95808 7.35242 -16.0262 -0.32179 -2.43033 22.8845 18.1688 3.39961 16.8437 -0.0 -0.0 0.0 0.0 0.0 
841.106951352 704.774 -1469.57162923 5.04301304718 71.5330556155 -13.7242017367 -0.167529 1.11061 5.82816 -0.148947 0.73816 5.88674 -0.0618785 -0.522478 5.90971 -0.110337 0.415725 5.91814 -10.1131 12.6824 -18.9943 -9.31124 36.5743 -15.7295 -0.0 0.0 -0.0 -6.91735 24.2491 -6.60255 -17.6303 3.24057 73.1015 0.74691 -20.3043 0.133749 -27.5289 -1.73272 3.029 0.629022 17.8594 11.1198 -0.0 0.0 -0.0 13.3444 24.0692 -26.6909 6.75848 50.0782 -59.2395 1.41313 34.9909 -0.445454 -70.8648 6.65644 -5.30918 -4.56154 -23.5769 17.0457 0.0 0.0 0.0 19.8318 22.072 -2.29902 -20.3872 0.290835 3.09857 19.5257 7.50899 -2.67178 -32.3122 0.0 0.0 -0.0 0.0 -0.0 -1.04789 1.95808 7.35242 -16.0262 -0.32179 -2.43033 22.8845 18.1688 3.39961 16.8437 -0.0 -0.0 0.0 0.0 0.0 
841.198584717 704.774 -1463.85338694 5.21115095921 72.1477084682 -13.9011507 -0.167529 1.11061 5.82816 -0.148947 0.73816 5.88674 -0.0618785 -0.522478 5.90971 -0.110337 0.415725 5.91814 -10.1131 12.6824 -18.9943 -9.31124 36.5743 -15.7295 -0.0 0.0 -0.0 -6.91735 24.2491 -6.60255 -17.6303 3.24057 73.1015 0.74691 -20.3043 0.133749 -27.5289 -1.73272 3.029 0.629022 17.8594 11.1198 -0.0 0.0 -0.0 13.3444 24.0692 -26.6909 6.75848 50.0782 -59.2395 1.41313 34.9909 -0.445454 -70.8648 6.65644 -5.30918 -4.56154 -23.5769 17.0457 0.0 0.0 0.0 19.8318 22.072 -2.29902 -20.3872 0.290835 3.09857 19.5257 7.50899 -2.67178 -32.3122 0.0 0.0 -0.0 0.0 -0.0 -1.04789 1.95808 7.35242 -16.0262 -0.32179 -2.43033 22.8845 18.1688 3.39961 16.8437 -0.0 -0.0 0.0 0.0 0.0 
